<?xml version="1.0" standalone="no"?>
<!DOCTYPE svg PUBLIC "-//W3C//DTD SVG 20010904//EN"
 "http://www.w3.org/TR/2001/REC-SVG-20010904/DTD/svg10.dtd">
<svg version="1.0" xmlns="http://www.w3.org/2000/svg"
 width="300.000000pt" height="188.000000pt" viewBox="0 0 300.000000 188.000000"
 preserveAspectRatio="xMidYMid meet">
<metadata>
Created by potrace 1.10, written by Peter Selinger 2001-2011
</metadata>
<g transform="translate(0.000000,188.000000) scale(0.100000,-0.100000)"
fill="#000000" stroke="none">
<path d="M1420 1540 c-30 -42 -32 -97 -5 -117 28 -19 57 -13 74 18 17 31 10
63 -22 103 l-24 29 -23 -33z m44 -66 c10 -25 7 -41 -7 -47 -24 -9 -40 9 -33
37 7 29 30 35 40 10z"/>
<path d="M1340 1447 c0 -44 21 -64 44 -42 19 19 8 48 -24 65 -18 10 -20 7 -20
-23z"/>
<path d="M1522 1464 c-25 -17 -29 -59 -7 -68 30 -11 57 40 37 71 -6 10 -13 9
-30 -3z"/>
<path d="M1210 1445 c0 -80 88 -134 120 -74 22 41 -33 99 -95 99 -20 0 -25 -5
-25 -25z m91 -35 c23 -13 25 -38 4 -46 -20 -8 -45 13 -45 37 0 21 12 24 41 9z"/>
<path d="M1604 1456 c-50 -22 -60 -75 -20 -101 19 -13 29 -14 45 -6 31 17 51
52 51 88 0 28 -4 33 -22 33 -13 -1 -37 -7 -54 -14z m26 -55 c0 -24 -25 -45
-45 -37 -20 7 -19 33 3 45 26 16 42 13 42 -8z"/>
<path d="M1364 1371 c-126 -77 -83 -278 64 -298 83 -11 164 53 177 142 8 51
-26 121 -74 152 -44 29 -123 31 -167 4z m122 -16 c66 -27 97 -81 86 -147 -10
-58 -73 -108 -131 -104 -60 5 -129 72 -131 129 0 36 46 95 95 120 37 20 38 20
81 2z"/>
<path d="M1200 1331 c0 -14 51 -52 64 -48 6 2 11 15 11 28 0 21 -5 24 -37 27
-21 2 -38 -1 -38 -7z"/>
<path d="M1617 1333 c-13 -12 -7 -41 10 -47 16 -6 63 28 63 46 0 10 -64 11
-73 1z"/>
<path d="M1152 1264 c-36 -21 -41 -28 -31 -41 17 -20 64 -43 89 -43 19 0 20
-1 5 -24 -15 -23 -15 -25 4 -31 23 -7 61 2 61 15 0 4 -10 6 -21 3 -16 -4 -20
-2 -17 8 3 8 12 13 21 13 9 -1 14 2 11 7 -3 5 -12 9 -21 9 -14 0 -14 2 2 20
23 26 13 68 -21 80 -34 13 -33 13 -82 -16z m98 -19 c16 -19 4 -35 -25 -35 -32
0 -42 20 -20 37 24 17 30 16 45 -2z"/>
<path d="M1653 1278 c-43 -21 -35 -82 12 -94 29 -7 76 10 100 36 15 17 14 19
-13 38 -37 27 -72 34 -99 20z m38 -29 c16 -8 18 -13 8 -25 -17 -21 -59 -18
-59 4 0 33 17 40 51 21z"/>
<path d="M1614 1165 c-13 -33 32 -57 66 -35 12 7 12 12 -4 29 -22 25 -54 27
-62 6z"/>
<path d="M1247 1108 c-18 -14 -37 -59 -37 -89 0 -45 110 -10 123 40 12 45 -46
78 -86 49z m73 -33 c0 -7 -13 -18 -30 -24 -26 -9 -30 -8 -30 9 0 29 29 53 46
39 8 -6 14 -17 14 -24z"/>
<path d="M1572 1108 c-38 -38 10 -108 74 -108 30 0 34 3 34 25 0 69 -69 122
-108 83z m46 -10 c19 -19 15 -48 -7 -48 -28 0 -47 26 -31 45 15 18 22 19 38 3z"/>
<path d="M1347 1063 c-10 -9 -9 -73 1 -73 10 0 25 12 41 33 11 14 11 20 1 32
-13 16 -32 19 -43 8z"/>
<path d="M1507 1063 c-13 -13 -7 -40 14 -59 17 -16 22 -16 29 -4 12 19 12 27
0 51 -11 19 -31 25 -43 12z"/>
<path d="M1405 1026 c-10 -16 -15 -35 -11 -49 6 -26 43 -77 55 -77 5 0 19 20
32 44 19 36 21 50 13 73 -14 40 -66 45 -89 9z m65 -10 c0 -13 -6 -29 -14 -35
-12 -10 -17 -8 -26 9 -15 28 -6 50 20 50 14 0 20 -7 20 -24z"/>
<path d="M560 747 c-14 -7 -31 -25 -38 -40 -19 -39 2 -76 60 -107 49 -26 60
-46 31 -57 -10 -4 -22 1 -32 14 -15 18 -19 19 -39 5 -12 -8 -22 -20 -22 -27 0
-25 51 -55 89 -54 l36 2 -43 6 c-23 4 -50 15 -60 24 -15 16 -15 18 1 34 15 16
18 15 37 -2 16 -15 25 -17 38 -9 33 22 25 42 -28 69 -75 38 -89 99 -29 130 38
20 62 19 93 -6 24 -19 26 -23 13 -36 -13 -13 -18 -13 -41 2 -21 14 -29 15 -41
5 -24 -20 -18 -28 35 -55 73 -37 88 -77 49 -131 l-21 -29 26 28 c46 50 25 106
-53 142 -23 10 -41 22 -41 26 0 17 22 20 45 5 20 -14 28 -14 45 -4 26 16 25
20 -6 52 -29 28 -64 33 -104 13z"/>
<path d="M760 752 c0 -5 11 -7 25 -4 24 4 25 3 25 -52 l0 -56 35 0 35 0 0 55
c0 48 2 55 20 55 19 0 20 -7 20 -130 0 -123 -1 -130 -20 -130 -18 0 -20 7 -20
55 l0 55 -35 0 -35 0 0 -54 c0 -51 -2 -55 -25 -59 -23 -4 -23 -4 2 -3 26 1 28
4 31 54 3 47 5 52 27 52 22 0 24 -5 27 -52 3 -49 5 -53 31 -56 l27 -3 0 141 0
141 -27 -3 c-26 -3 -28 -7 -31 -55 -3 -48 -5 -53 -27 -53 -22 0 -24 5 -27 53
-3 48 -5 52 -30 55 -16 2 -28 -1 -28 -6z"/>
<path d="M1055 748 c-10 -32 -25 -94 -24 -103 1 -5 9 15 18 45 13 42 22 56 38
58 15 2 24 -4 31 -25 6 -15 11 -22 11 -15 1 7 -4 22 -9 33 -12 21 -58 26 -65
7z"/>
<path d="M1245 748 c-3 -8 -4 -70 -3 -139 l3 -124 28 -3 c15 -2 27 1 27 6 0 5
-11 7 -25 4 l-25 -4 0 131 0 131 24 0 c13 0 27 -5 29 -10 3 -6 4 -5 3 2 -4 18
-55 23 -61 6z"/>
<path d="M1357 753 c-4 -3 -7 -27 -7 -52 l-1 -46 -19 35 c-11 19 -19 31 -19
25 0 -5 11 -30 24 -55 l24 -45 1 68 c0 60 2 67 20 67 19 0 20 -7 20 -130 0
-120 -1 -130 -18 -130 -12 0 -25 14 -37 40 -10 22 -20 38 -22 36 -3 -2 5 -22
17 -45 15 -31 26 -41 45 -41 l25 0 0 140 c0 140 0 140 -23 140 -13 0 -27 -3
-30 -7z"/>
<path d="M1490 619 l0 -140 28 3 c25 3 27 7 30 56 2 28 7 52 11 52 4 0 13 -18
20 -41 7 -23 14 -39 17 -37 2 3 -3 26 -12 52 -13 38 -19 45 -30 35 -8 -7 -14
-31 -14 -60 0 -42 -3 -49 -20 -49 -19 0 -20 7 -20 130 0 123 1 130 20 130 17
0 20 -7 20 -40 0 -22 4 -40 10 -40 8 0 6 41 -6 78 -2 6 -15 12 -29 12 l-25 0
0 -141z"/>
<path d="M1599 743 c-27 -33 -34 -49 -9 -21 25 28 65 39 58 16 -3 -7 -12 -13
-20 -13 -9 0 -36 -26 -61 -59 l-46 -58 -4 63 c-2 35 -3 12 -3 -51 -1 -63 1
-97 3 -76 5 42 41 103 53 89 6 -7 15 -28 40 -97 6 -16 13 -26 16 -23 4 3 -6
37 -21 76 l-28 69 23 32 c27 38 39 33 14 -7 -22 -35 -7 -20 29 28 14 20 23 39
20 43 -13 12 -50 6 -64 -11z"/>
<path d="M1774 745 c-4 -9 -4 -19 0 -22 3 -4 6 1 6 10 0 11 8 17 25 17 20 0
26 -7 35 -42 6 -24 15 -54 20 -68 8 -21 9 -19 4 10 -14 79 -28 105 -57 108
-18 2 -29 -2 -33 -13z"/>
<path d="M1967 753 c-4 -3 -7 -66 -7 -140 l0 -133 30 0 c28 0 30 3 30 35 0 19
4 35 8 35 5 0 16 -16 25 -35 14 -29 22 -35 47 -35 35 0 34 -2 15 43 -13 31
-13 39 0 64 30 56 16 137 -26 158 -28 15 -110 21 -122 8z m135 -33 c22 -28 24
-90 2 -135 -14 -30 -14 -36 1 -64 15 -30 15 -31 -8 -31 -17 0 -28 10 -40 36
-21 42 -41 40 -45 -4 -2 -24 -8 -32 -23 -32 -18 0 -19 8 -19 131 l0 131 57 -4
c43 -4 61 -10 75 -28z"/>
<path d="M1992 618 c1 -62 3 -96 5 -75 4 32 8 37 29 37 19 0 29 -8 40 -36 8
-20 17 -34 20 -31 3 3 -1 18 -10 34 -13 27 -13 30 5 41 15 10 19 24 19 65 0
29 -5 58 -12 65 -7 7 -31 12 -55 12 l-43 0 2 -112z m86 90 c7 -7 12 -30 12
-53 0 -50 -13 -65 -57 -65 l-33 0 0 65 0 65 33 0 c18 0 38 -5 45 -12z"/>
<path d="M2012 653 l1 -48 4 44 c4 39 6 43 28 38 14 -2 22 0 19 4 -3 5 -16 9
-30 9 -22 0 -24 -3 -22 -47z"/>
<path d="M2244 745 c-4 -9 -4 -19 0 -22 3 -4 6 1 6 10 0 11 8 17 25 17 20 0
26 -7 35 -42 6 -24 15 -54 20 -68 8 -21 9 -19 4 10 -14 79 -28 105 -57 108
-18 2 -29 -2 -33 -13z"/>
<path d="M555 714 c-24 -24 -14 -56 25 -81 78 -49 85 -58 72 -87 -9 -19 -19
-26 -41 -26 -16 0 -33 5 -36 10 -3 6 -11 10 -18 10 -6 0 -4 -7 5 -17 23 -23
77 -21 95 3 22 31 12 66 -27 91 -67 42 -82 57 -75 76 9 22 53 33 76 18 26 -15
34 -14 19 4 -17 20 -74 19 -95 -1z"/>
<path d="M784 620 c0 -63 1 -89 3 -57 l4 58 52 -3 52 -3 6 -55 c4 -37 6 -17 6
60 -1 63 -2 91 -4 63 l-4 -53 -54 0 -54 0 -4 53 c-2 28 -3 0 -3 -63z"/>
<path d="M1071 698 c-31 -101 -52 -180 -48 -184 3 -3 9 9 15 25 10 28 15 31
51 31 35 0 40 -3 50 -32 6 -17 13 -29 15 -27 7 6 -58 219 -66 219 -3 0 -11
-15 -17 -32z m40 -63 l17 -55 -40 0 c-33 0 -39 3 -34 16 4 9 11 36 17 61 7 24
14 41 17 38 3 -3 14 -30 23 -60z"/>
<path d="M1272 618 l2 -113 5 94 6 93 45 -91 c24 -50 48 -91 52 -91 4 0 7 51
6 113 l-2 112 -5 -99 -6 -98 -45 92 c-25 50 -48 94 -52 97 -5 2 -7 -47 -6
-109z"/>
<path d="M1796 719 c-27 -83 -56 -193 -53 -202 2 -7 7 3 11 21 7 30 10 32 51
32 39 0 44 -3 54 -30 5 -16 12 -30 15 -30 3 0 3 6 1 13 -2 6 -16 53 -31 102
-27 94 -40 119 -48 94z m39 -106 c6 -32 6 -33 -29 -33 -20 0 -36 3 -36 7 0 3
8 31 17 61 l17 55 12 -29 c6 -16 15 -44 19 -61z"/>
<path d="M1796 634 c-11 -28 -6 -44 12 -43 10 0 12 3 5 6 -7 2 -13 12 -13 21
0 15 2 15 10 2 8 -13 10 -13 10 2 0 23 -17 32 -24 12z"/>
<path d="M2266 719 c-21 -61 -57 -202 -52 -206 3 -4 9 8 12 25 6 30 9 32 49
32 39 0 44 -3 54 -30 5 -16 12 -30 15 -30 3 0 3 6 1 13 -2 6 -16 53 -31 102
-27 94 -40 118 -48 94z m41 -110 c5 -28 4 -29 -31 -29 -20 0 -36 3 -36 7 0 3
8 31 17 61 l17 55 14 -33 c7 -18 16 -45 19 -61z"/>
<path d="M2270 646 c0 -4 5 -16 10 -27 7 -11 7 -19 1 -19 -5 0 -12 6 -14 13
-3 7 -6 4 -6 -6 -1 -12 5 -17 17 -15 11 2 16 11 14 23 -4 20 -22 46 -22 31z"/>
<path d="M1737 611 c-34 -124 -34 -131 -1 -131 19 0 28 7 36 31 8 24 15 30 36
27 18 -2 28 -10 32 -28 6 -25 29 -36 55 -27 11 5 10 16 -2 67 -9 33 -18 59
-20 56 -2 -2 2 -29 10 -60 15 -56 15 -56 -8 -56 -17 0 -24 7 -28 30 -6 26 -11
30 -41 30 -30 0 -35 -4 -41 -30 -5 -21 -13 -30 -26 -30 -24 0 -24 4 7 117 14
52 24 97 21 99 -2 2 -16 -41 -30 -95z"/>
<path d="M1131 685 c-1 -9 26 -113 45 -177 8 -28 -35 -23 -46 5 -5 12 -9 17
-9 10 -2 -25 12 -43 34 -43 13 0 26 4 29 8 3 5 -6 49 -19 98 -28 98 -33 114
-34 99z"/>
<path d="M2201 588 c-12 -46 -21 -89 -21 -96 0 -17 53 -12 56 6 1 7 0 8 -3 2
-6 -13 -43 -13 -43 0 0 5 9 44 21 86 11 41 19 78 16 80 -2 2 -14 -33 -26 -78z"/>
<path d="M1621 598 c-1 -4 8 -30 19 -59 l21 -51 -31 4 c-16 3 -30 1 -30 -4 0
-4 16 -8 36 -8 32 0 35 2 28 22 -10 34 -42 104 -43 96z"/>
<path d="M1001 546 c-15 -62 -14 -66 15 -66 19 0 28 7 37 30 8 22 19 30 42 33
l30 4 -33 1 c-28 2 -35 -2 -43 -28 -7 -19 -18 -30 -30 -30 -22 0 -22 2 -8 53
6 22 8 41 6 43 -2 3 -10 -15 -16 -40z"/>
<path d="M2245 539 c-4 -6 -4 -13 -1 -16 3 -4 6 -1 6 5 0 7 11 12 26 12 19 0
28 -7 35 -30 8 -22 17 -30 34 -30 30 0 38 12 25 42 -10 22 -10 22 -5 -4 4 -23
2 -28 -15 -28 -14 0 -24 10 -31 30 -9 24 -17 30 -39 30 -16 0 -32 -5 -35 -11z"/>
<path d="M703 417 c3 -7 13 -41 22 -75 10 -34 22 -62 26 -62 5 0 9 3 9 8 0 4
9 37 19 75 11 37 16 67 12 67 -5 0 -14 -21 -21 -47 -19 -69 -25 -70 -39 -8 -7
30 -17 55 -23 55 -5 0 -8 -6 -5 -13z"/>
<path d="M820 355 l0 -75 40 0 c23 0 40 5 40 11 0 7 -12 10 -30 7 -27 -4 -30
-2 -30 24 0 24 4 28 30 28 17 0 30 5 30 11 0 7 -11 8 -30 4 -28 -6 -30 -5 -30
24 0 26 4 30 33 34 28 3 26 4 -10 5 l-43 2 0 -75z"/>
<path d="M931 398 c2 -31 2 -31 6 -5 4 28 10 31 37 21 19 -7 22 -94 4 -112
-19 -19 -36 -14 -41 11 -4 19 -4 18 -6 -5 -1 -25 3 -28 29 -28 35 0 50 23 50
75 0 52 -15 75 -50 75 -27 0 -30 -3 -29 -32z"/>
<path d="M1060 388 c-6 -24 -15 -58 -20 -75 -5 -18 -5 -33 0 -33 4 0 10 9 13
20 7 28 45 26 58 -2 7 -18 8 -15 4 17 -9 57 -27 115 -36 115 -5 0 -13 -19 -19
-42z m32 -23 c4 -19 1 -25 -12 -25 -13 0 -16 6 -12 25 2 14 8 25 12 25 4 0 10
-11 12 -25z"/>
<path d="M1250 422 c0 -4 -9 -37 -19 -75 -11 -37 -16 -67 -11 -67 4 0 10 9 13
20 3 12 14 20 27 20 13 0 24 -8 27 -20 3 -11 9 -20 13 -20 5 0 5 15 0 33 -5
17 -14 51 -20 75 -6 23 -15 42 -20 42 -6 0 -10 -3 -10 -8z m22 -57 c4 -19 1
-25 -12 -25 -13 0 -16 6 -12 25 2 14 8 25 12 25 4 0 10 -11 12 -25z"/>
<path d="M1330 356 l0 -76 28 0 c31 0 52 16 51 39 0 12 -4 10 -16 -6 -29 -43
-43 -29 -43 42 0 49 3 65 14 65 16 0 32 -18 39 -45 3 -11 5 -4 4 15 -2 33 -4
35 -39 38 l-38 3 0 -75z"/>
<path d="M1440 426 c0 -2 7 -20 15 -39 8 -20 15 -52 15 -72 0 -19 5 -35 10
-35 6 0 10 19 10 43 1 23 7 53 15 67 17 29 18 40 6 40 -5 0 -12 -11 -15 -25
-4 -14 -11 -25 -16 -25 -5 0 -12 11 -16 25 -3 14 -10 25 -15 25 -5 0 -9 -2 -9
-4z"/>
<path d="M1565 418 c-9 -29 -35 -127 -35 -132 0 -3 5 -6 10 -6 6 0 10 9 10 20
0 15 7 20 24 20 16 0 27 -7 31 -20 3 -11 10 -20 14 -20 4 0 -2 34 -13 75 -20
71 -32 90 -41 63z m25 -60 c0 -10 -7 -18 -16 -18 -11 0 -14 5 -10 16 3 9 6 23
6 32 0 15 2 15 10 2 5 -8 10 -23 10 -32z"/>
<path d="M1640 419 c0 -6 5 -20 11 -31 6 -11 15 -41 19 -67 6 -37 8 -40 9 -14
0 17 10 52 21 77 10 25 15 46 11 46 -5 0 -15 -14 -22 -32 l-13 -32 -13 32
c-13 32 -23 41 -23 21z"/>
<path d="M1746 360 c-10 -39 -16 -74 -12 -77 4 -4 9 3 13 15 7 30 53 31 53 2
0 -11 5 -20 10 -20 6 0 10 3 10 6 0 20 -42 144 -48 144 -5 0 -16 -32 -26 -70z
m38 8 c5 -21 3 -28 -9 -28 -16 0 -19 17 -9 45 8 19 9 18 18 -17z"/>
<path d="M1850 355 c0 -41 4 -75 9 -75 5 0 7 28 5 63 l-5 62 26 -54 c14 -29
25 -57 25 -62 0 -5 6 -9 13 -9 13 0 18 123 4 136 -4 4 -7 -17 -8 -47 l0 -54
-26 58 c-14 31 -29 57 -34 57 -5 0 -9 -34 -9 -75z"/>
<path d="M1983 355 c-11 -41 -17 -75 -13 -75 4 0 10 9 13 20 3 12 14 20 27 20
13 0 24 -8 27 -20 3 -11 9 -20 14 -20 11 0 11 1 -1 36 -5 16 -14 48 -20 72 -6
23 -14 42 -19 42 -4 0 -17 -34 -28 -75z m39 15 c4 -24 1 -30 -13 -30 -16 0
-17 4 -8 30 6 17 12 30 14 30 1 0 5 -13 7 -30z"/>
<path d="M2080 356 c0 -44 4 -76 10 -76 6 0 10 24 11 53 l1 52 14 -32 c8 -18
18 -33 22 -33 4 0 15 17 22 38 l15 37 6 -60 6 -60 1 78 c1 42 -2 77 -7 77 -4
0 -16 -21 -26 -47 l-18 -47 -17 44 c-27 70 -40 62 -40 -24z"/>
</g>
</svg>
